<svg width="235" height="24" viewBox="0 0 235 24" fill="none" xmlns="http://www.w3.org/2000/svg">
<path d="M20.5611 5.63865C21.2794 5.63865 21.8244 6.02793 22.1961 6.8065C22.3805 7.17808 22.4816 7.5854 22.4925 8.00007C22.5033 8.41474 22.4236 8.82679 22.2589 9.20751L19.8152 15.107C19.4468 16.0424 18.8356 16.8626 18.0446 17.4829C17.342 18.045 16.4704 18.3538 15.5707 18.3595H13.1044C12.9239 18.3567 12.7486 18.2987 12.6022 18.1931C12.4558 18.0876 12.3453 17.9396 12.2857 17.7692C12.194 17.5846 12.1438 17.3822 12.1386 17.1761C12.1334 16.97 12.1733 16.7653 12.2555 16.5763L14.8449 10.3352C15.0088 9.95908 15.0881 9.5516 15.0772 9.14151C15.0664 8.73141 14.9656 8.3287 14.7821 7.9618C14.4087 7.18323 13.8629 6.79394 13.1446 6.79394H12.0898C11.8924 6.79433 11.6976 6.83896 11.5197 6.92454C11.329 7.01684 11.1583 7.1457 11.0174 7.30378C10.8622 7.47622 10.7427 7.67766 10.6657 7.8965L7.65193 15.107C7.28517 16.0399 6.67873 16.8595 5.89388 17.4829C5.19476 18.046 4.32521 18.355 3.42757 18.3595H0.96629C0.785809 18.3567 0.610512 18.2987 0.464088 18.1931C0.317664 18.0876 0.20717 17.9396 0.147538 17.7692C0.0558583 17.5846 0.00565713 17.3822 0.000451048 17.1761C-0.00475504 16.97 0.0351599 16.7653 0.1174 16.5763L1.25511 13.8488L1.42087 13.457L4.65319 5.63865L5.60505 3.33057C5.68974 3.11373 5.73236 2.88274 5.73063 2.64995C5.73847 2.27309 5.62196 1.90415 5.39911 1.60014C5.30583 1.4612 5.17933 1.34777 5.03108 1.27013C4.88283 1.1925 4.71754 1.15313 4.55022 1.1556C4.51295 1.15313 4.47671 1.14238 4.44412 1.12413C4.41154 1.10588 4.38343 1.0806 4.36185 1.05012C4.30415 0.984757 4.27126 0.901192 4.26893 0.814035C4.27001 0.758595 4.28467 0.704266 4.31162 0.65581C4.49999 0.218807 4.78379 0.000305176 5.17056 0.000305176H10.7436C11.4736 0.000305176 12.0253 0.389589 12.3987 1.16816C12.5829 1.53987 12.6822 1.94783 12.6896 2.36261C12.697 2.77738 12.6122 3.18862 12.4414 3.56665C12.2053 4.12672 11.924 4.82241 11.5925 5.63865H20.5611Z" fill="url(#paint0_linear_81_62)"/>
<path d="M41.2939 5.63807C42.0122 5.63807 42.5497 6.02735 42.9314 6.80592C43.1152 7.17771 43.2159 7.58496 43.2268 7.99952C43.2376 8.41408 43.1583 8.82605 42.9942 9.20693L40.8192 14.451C40.3816 15.5785 39.6475 16.5668 38.6945 17.3116C37.8498 17.9843 36.8033 18.3532 35.7234 18.3589H23.2939C22.5756 18.3589 22.0382 17.9721 21.6589 17.1935C21.4748 16.8263 21.3739 16.423 21.3634 16.0123C21.353 15.6016 21.4333 15.1937 21.5987 14.8176L21.993 13.8457L22.1587 13.4539L23.7711 9.54347C24.2076 8.4194 24.9369 7.43259 25.8833 6.68537C26.7309 6.0087 27.7824 5.63871 28.867 5.63556L41.2939 5.63807ZM36.3236 8.57654C36.406 8.38534 36.4459 8.17858 36.4407 7.97047C36.4355 7.76237 36.3853 7.55786 36.2935 7.37101C36.2312 7.20339 36.1197 7.05852 35.9736 6.95543C35.8274 6.85234 35.6536 6.79584 35.4748 6.79337H34.7489C33.8452 6.79612 32.9693 7.1061 32.265 7.67239C31.4783 8.29299 30.8714 9.11231 30.507 10.0458L28.2692 15.448C28.187 15.6349 28.1471 15.8376 28.1523 16.0416C28.1575 16.2457 28.2078 16.446 28.2994 16.6284C28.3614 16.7963 28.4728 16.9413 28.619 17.0445C28.7652 17.1476 28.9392 17.204 29.1181 17.2061H29.8439C30.7476 17.2033 31.6236 16.8934 32.3278 16.3271C33.1139 15.7058 33.7206 14.8867 34.0859 13.9537L36.3236 8.57654Z" fill="url(#paint1_linear_81_62)"/>
<path d="M64.5148 0.000305176C65.2465 0.000305176 65.799 0.389589 66.1724 1.16816C66.3562 1.54006 66.4551 1.94812 66.462 2.36289C66.469 2.77766 66.3838 3.1888 66.2126 3.56665L60.642 17.0484C60.4964 17.4247 60.2527 17.7551 59.9363 18.0053C59.6522 18.2356 59.2974 18.3607 58.9317 18.3595H42.5993C42.4189 18.3567 42.2436 18.2987 42.0971 18.1931C41.9507 18.0876 41.8402 17.9396 41.7806 17.7692C41.6889 17.5846 41.6387 17.3822 41.6335 17.1761C41.6283 16.97 41.6682 16.7653 41.7505 16.5763L42.8882 13.8488L43.0564 13.457L44.6713 9.54405C45.1078 8.41998 45.8371 7.43316 46.7835 6.68595C47.6311 6.00928 48.6827 5.63928 49.7672 5.63614H58.4244L59.3787 3.32806C59.4852 3.09192 59.531 2.83292 59.5119 2.5746C59.4957 2.32996 59.4362 2.09015 59.3361 1.86636C59.2435 1.66602 59.1008 1.493 58.9217 1.36406C58.7478 1.23594 58.5373 1.16725 58.3214 1.16816C58.2705 1.16624 58.2213 1.14887 58.1805 1.11837C58.1397 1.08787 58.1091 1.04567 58.0929 0.997375C58.0656 0.946828 58.0513 0.890299 58.0513 0.832871C58.0513 0.775443 58.0656 0.718915 58.0929 0.668367C58.2662 0.218807 58.555 0.000305176 58.9417 0.000305176H64.5148ZM57.5554 7.73827C57.5962 7.63761 57.6155 7.52952 57.612 7.42095C57.6086 7.31238 57.5824 7.20574 57.5353 7.10788C57.5034 7.01708 57.4444 6.93828 57.3662 6.88213C57.2881 6.82598 57.1945 6.79519 57.0983 6.79394H56.2293C55.5226 6.79504 54.8253 6.95648 54.19 7.26611C53.5149 7.59407 52.9121 8.05343 52.4168 8.6173C51.8732 9.23381 51.4391 9.93884 51.1335 10.7019L49.953 13.5625L49.7873 13.9568L49.1669 15.4511C49.0842 15.6378 49.0441 15.8406 49.0493 16.0447C49.0545 16.2489 49.105 16.4493 49.1971 16.6315C49.2591 16.7994 49.3705 16.9444 49.5167 17.0476C49.6629 17.1507 49.8369 17.207 50.0158 17.2092H52.4897C52.7264 17.2088 52.96 17.1547 53.1728 17.051C53.3911 16.9409 53.5857 16.789 53.7454 16.6039C53.9244 16.4017 54.0679 16.1708 54.1699 15.9208L55.953 11.5934L57.5554 7.73827Z" fill="url(#paint2_linear_81_62)"/>
<path d="M73.7722 0.000305176C74.5056 0.000305176 75.0581 0.389589 75.4298 1.16816C75.614 1.53987 75.7133 1.94783 75.7207 2.36261C75.7281 2.77738 75.6433 3.18862 75.4725 3.56665L70.6881 15.1196C70.4426 15.7561 70.0844 16.3431 69.6307 16.8525C69.2149 17.3213 68.7115 17.7043 68.1489 17.9802C67.6233 18.2369 67.0462 18.3709 66.4612 18.372H63.9974C63.8169 18.3693 63.6416 18.3112 63.4952 18.2057C63.3488 18.1001 63.2383 17.9522 63.1786 17.7818C63.0867 17.5973 63.0362 17.395 63.0306 17.1889C63.0249 16.9829 63.0643 16.7781 63.146 16.5888L64.2938 13.8488L64.4595 13.457L67.6843 5.63865L68.6362 3.33057C68.7209 3.11373 68.7635 2.88274 68.7617 2.64995C68.7608 2.45863 68.7329 2.2684 68.6789 2.08486C68.6265 1.91126 68.5459 1.74748 68.4403 1.60014C68.3409 1.46337 68.2111 1.35159 68.061 1.27364C67.9142 1.19539 67.7502 1.15482 67.5838 1.1556C67.5468 1.15387 67.5106 1.14342 67.4783 1.12509C67.446 1.10676 67.4185 1.08108 67.398 1.05012C67.3439 0.983365 67.3146 0.899942 67.3151 0.814035C67.3162 0.758595 67.3309 0.704266 67.3578 0.65581C67.5311 0.218807 67.8099 0.000305176 68.2017 0.000305176H73.7722Z" fill="url(#paint3_linear_81_62)"/>
<path d="M94.4318 5.63807C94.6136 5.63748 94.7904 5.69758 94.9341 5.80885C95.0869 5.92609 95.2078 6.0798 95.2857 6.2559C95.3696 6.44131 95.4124 6.64263 95.4113 6.84611C95.4129 7.0456 95.37 7.24294 95.2857 7.42375C95.1942 7.65907 95.069 7.87987 94.914 8.07926C94.7102 8.34449 94.4481 8.55931 94.148 8.70714L86.7818 11.515L80.5884 13.8758L80.4427 13.9537L79.8224 15.448C79.7402 15.6349 79.7003 15.8376 79.7055 16.0416C79.7107 16.2457 79.7609 16.446 79.8525 16.6284C79.9145 16.7963 80.0259 16.9413 80.1721 17.0445C80.3183 17.1476 80.4923 17.204 80.6712 17.2061H83.6323C83.8334 17.2039 84.0289 17.1399 84.1924 17.0227C84.3752 16.8767 84.5178 16.6866 84.6068 16.4702C84.661 16.3123 84.7481 16.1677 84.8624 16.0461C84.9767 15.9244 85.1156 15.8284 85.2698 15.7645L90.883 13.6121C91.0273 13.5508 91.1873 13.537 91.3399 13.5727C91.4925 13.6083 91.6298 13.6916 91.7319 13.8105C91.8568 13.9408 91.954 14.0949 92.0179 14.2636C92.0818 14.4324 92.1109 14.6123 92.1036 14.7925C92.1054 14.9808 92.0705 15.1677 92.0007 15.3426C91.6599 16.209 91.0958 16.9698 90.3657 17.5477C89.7129 18.0709 88.9017 18.3569 88.0651 18.3589H73.2472C73.0668 18.3558 72.8917 18.2976 72.7453 18.1921C72.599 18.0866 72.4884 17.9388 72.4285 17.7687C72.338 17.5835 72.2891 17.3808 72.2852 17.1747C72.2813 16.9686 72.3225 16.7642 72.4059 16.5757L75.3267 9.54347C75.7632 8.4194 76.4925 7.43259 77.4389 6.68537C78.2865 6.0087 79.3381 5.63871 80.4226 5.63556L94.4318 5.63807ZM88.1279 7.94615C88.1824 7.82385 88.2088 7.69093 88.2053 7.5571C88.2019 7.42328 88.1686 7.29191 88.1078 7.1726C88.0664 7.06241 87.9927 6.96728 87.8964 6.89962C87.8001 6.83196 87.6856 6.79493 87.5679 6.79337H86.8973C85.8125 6.79532 84.7606 7.16546 83.9136 7.84318C82.9666 8.58988 82.2373 9.57685 81.8014 10.7013L80.6185 13.5619L84.8027 11.9621C85.5056 11.682 86.1334 11.2417 86.6361 10.6762C87.1931 10.0577 87.6232 9.33574 87.9019 8.55142L88.1279 7.94615Z" fill="url(#paint4_linear_81_62)"/>
<path d="M113.462 5.63849C113.576 5.64106 113.688 5.6669 113.791 5.71442C113.894 5.76194 113.987 5.83012 114.063 5.91475C114.239 6.09345 114.354 6.32259 114.394 6.57026C114.434 6.83864 114.412 7.11248 114.331 7.37143C114.227 7.68353 114.056 7.9693 113.831 8.20906C113.605 8.44882 113.33 8.63688 113.025 8.7603L107.826 10.7544C107.427 10.9127 107.091 10.7796 106.822 10.3601C106.691 10.1655 106.611 9.94062 106.592 9.70676C106.572 9.47291 106.612 9.23787 106.709 9.02401L106.895 8.57696C106.977 8.38575 107.017 8.17899 107.012 7.97089C107.006 7.76279 106.956 7.55828 106.865 7.37143C106.802 7.20381 106.691 7.05894 106.545 6.95585C106.398 6.85275 106.225 6.79626 106.046 6.79378H105.651C105.516 6.79322 105.38 6.80668 105.247 6.83397C105.117 6.85853 104.992 6.90256 104.875 6.96457C104.754 7.02749 104.64 7.10237 104.534 7.18809C104.425 7.27569 104.322 7.3714 104.227 7.4744C104.128 7.58462 104.038 7.70308 103.959 7.82853C103.876 7.96164 103.8 8.09726 103.73 8.23539L100.887 15.1069C100.519 16.0422 99.9075 16.8624 99.1165 17.4828C98.414 18.045 97.5424 18.3538 96.6427 18.3593H94.1814C94.001 18.3562 93.8259 18.298 93.6795 18.1925C93.5331 18.087 93.4226 17.9393 93.3626 17.7691C93.2702 17.5848 93.2191 17.3826 93.213 17.1765C93.2069 16.9704 93.246 16.7655 93.3275 16.5761L96.2684 9.52128C96.7098 8.40688 97.4386 7.42936 98.3806 6.6883C99.2215 6.01363 100.266 5.6436 101.344 5.63849H113.462Z" fill="url(#paint5_linear_81_62)"/>
<path d="M133.926 5.63912C134.106 5.64255 134.281 5.70088 134.427 5.80634C134.573 5.91179 134.684 6.05935 134.744 6.22932C134.836 6.41444 134.886 6.61728 134.891 6.82374C134.896 7.0302 134.857 7.23531 134.775 7.4248C134.666 7.72476 134.495 7.99862 134.274 8.22874C134.053 8.45886 133.786 8.64014 133.491 8.76093L128.312 10.7551C127.898 10.9133 127.559 10.7802 127.288 10.3608C127.156 10.1666 127.076 9.94174 127.055 9.70778C127.035 9.47383 127.075 9.2386 127.172 9.02464L127.358 8.57759C127.441 8.38655 127.481 8.17971 127.476 7.9715C127.471 7.76328 127.42 7.55871 127.328 7.37206C127.266 7.20424 127.154 7.05918 127.008 6.95604C126.862 6.8529 126.688 6.79654 126.509 6.79441H124.211C123.943 6.79301 123.678 6.85135 123.435 6.9652C123.181 7.08455 122.956 7.25565 122.772 7.4675C122.567 7.70142 122.402 7.96796 122.285 8.25611L122.034 8.85888C121.758 9.51383 121.736 10.2478 121.971 10.9183C122.207 11.6266 122.606 12.0837 123.171 12.2946L130.347 15.0698C130.494 15.1261 130.626 15.2174 130.731 15.336C130.835 15.4546 130.91 15.5968 130.947 15.7505C131.058 16.0941 131.044 16.4661 130.907 16.8003L130.887 16.8254C130.714 17.2676 130.429 17.6566 130.058 17.9531C129.724 18.2243 129.307 18.3725 128.877 18.3725H112.736C112.557 18.3709 112.383 18.315 112.237 18.2123C112.091 18.1096 111.979 17.9649 111.917 17.7973C111.826 17.6149 111.775 17.4146 111.77 17.2105C111.765 17.0065 111.805 16.8038 111.887 16.6169L112.113 16.092C112.214 15.784 112.381 15.5021 112.604 15.2664C112.826 15.0306 113.098 14.8469 113.399 14.7283L118.598 12.7341C118.997 12.5759 119.334 12.704 119.602 13.1159C119.734 13.3126 119.814 13.5396 119.834 13.7756C119.853 14.0116 119.813 14.2487 119.715 14.4646L119.301 15.4692C119.218 15.6588 119.183 15.8656 119.198 16.0719C119.208 16.2711 119.254 16.4669 119.334 16.6496C119.405 16.8196 119.523 16.9653 119.675 17.069C119.813 17.1701 119.979 17.2255 120.15 17.2272H121.602C122.282 17.2266 122.943 16.9955 123.475 16.5717C124.068 16.108 124.523 15.4915 124.791 14.7886C124.929 14.4632 124.943 14.099 124.831 13.7639C124.792 13.6081 124.717 13.4634 124.613 13.3407C124.509 13.218 124.378 13.1205 124.231 13.0556L115.966 9.8886C115.818 9.8232 115.686 9.72573 115.581 9.60323C115.475 9.48073 115.398 9.33628 115.356 9.18035C115.237 8.84791 115.248 8.48304 115.386 8.15816L115.823 7.10835C115.989 6.68513 116.264 6.31284 116.619 6.0284C116.94 5.77265 117.338 5.63362 117.749 5.6341L133.926 5.63912Z" fill="url(#paint6_linear_81_62)"/>
<path d="M152.838 5.63807C153.071 5.63901 153.302 5.68992 153.515 5.78737C153.728 5.88483 153.917 6.02659 154.071 6.20316C154.419 6.57571 154.643 7.0483 154.709 7.55435C154.781 8.11137 154.721 8.67762 154.533 9.20693L152.358 14.451C151.922 15.5761 151.193 16.5639 150.246 17.3116C149.398 17.9875 148.346 18.3566 147.262 18.3589H139.187C138.801 18.3589 138.518 18.5782 138.339 19.0169L137.613 20.7473C137.248 21.6808 136.642 22.5002 135.855 23.1207C135.152 23.684 134.279 23.9937 133.378 23.9997H130.915C130.741 23.9965 130.573 23.9365 130.437 23.8289C130.29 23.7204 130.172 23.576 130.096 23.4095C130.017 23.2308 129.971 23.0394 129.96 22.8444C129.948 22.6299 129.984 22.4155 130.066 22.2166L135.312 9.54347C135.751 8.41704 136.485 7.42967 137.437 6.68537C138.282 6.01224 139.328 5.64251 140.408 5.63556L152.838 5.63807ZM147.845 8.57654C147.927 8.38534 147.967 8.17858 147.962 7.97047C147.956 7.76237 147.906 7.55786 147.814 7.37101C147.753 7.20319 147.641 7.05813 147.495 6.95499C147.349 6.85185 147.175 6.7955 146.996 6.79337H146.27C145.46 6.79621 144.671 7.04785 144.01 7.51417C143.279 8.02527 142.683 8.70503 142.272 9.49575L139.725 15.659C139.676 15.8367 139.663 16.0225 139.688 16.2052C139.713 16.3879 139.775 16.5635 139.871 16.7214C139.942 16.866 140.052 16.9879 140.189 17.0735C140.325 17.1591 140.483 17.205 140.644 17.2061H141.37C141.962 17.2068 142.546 17.0719 143.078 16.8118C143.639 16.5384 144.14 16.1549 144.55 15.6841C144.999 15.1703 145.359 14.5856 145.617 13.9537L147.845 8.57654Z" fill="url(#paint7_linear_81_62)"/>
<path d="M173.57 5.63807C174.288 5.63807 174.826 6.02735 175.208 6.80592C175.391 7.17771 175.492 7.58496 175.503 7.99952C175.514 8.41408 175.434 8.82605 175.27 9.20693L173.095 14.451C172.658 15.5785 171.924 16.5668 170.971 17.3116C170.126 17.9843 169.079 18.3532 168 18.3589H155.57C154.852 18.3589 154.314 17.9721 153.935 17.1935C153.751 16.8268 153.65 16.4241 153.639 16.0138C153.628 15.6036 153.708 15.1961 153.872 14.8202L154.267 13.8482L154.432 13.4564L156.047 9.54347C156.484 8.4194 157.213 7.43259 158.159 6.68537C159.007 6.0087 160.059 5.63871 161.143 5.63556L173.57 5.63807ZM168.6 8.57654C168.682 8.38534 168.722 8.17858 168.717 7.97047C168.712 7.76237 168.661 7.55786 168.57 7.37101C168.507 7.20339 168.396 7.05852 168.25 6.95543C168.104 6.85234 167.93 6.79584 167.751 6.79337H167.015C166.111 6.79612 165.235 7.1061 164.531 7.67239C163.745 8.29367 163.138 9.11278 162.773 10.0458L160.535 15.448C160.453 15.6349 160.413 15.8376 160.418 16.0416C160.424 16.2457 160.474 16.446 160.565 16.6284C160.627 16.7963 160.739 16.9413 160.885 17.0445C161.031 17.1476 161.205 17.204 161.384 17.2061H162.11C163.014 17.2033 163.89 16.8934 164.594 16.3271C165.38 15.7058 165.987 14.8867 166.352 13.9537L168.6 8.57654Z" fill="url(#paint8_linear_81_62)"/>
<path d="M194.159 5.63849C194.273 5.64072 194.386 5.6664 194.489 5.71392C194.593 5.76145 194.686 5.82981 194.762 5.91475C194.938 6.09345 195.054 6.32259 195.094 6.57026C195.133 6.83864 195.112 7.11248 195.031 7.37143C194.926 7.68353 194.756 7.9693 194.53 8.20906C194.305 8.44882 194.03 8.63688 193.725 8.7603L188.526 10.7544C188.127 10.9127 187.79 10.7796 187.521 10.3601C187.39 10.1655 187.311 9.94062 187.291 9.70676C187.271 9.47291 187.312 9.23787 187.408 9.02401L187.594 8.57696C187.677 8.38575 187.717 8.17899 187.711 7.97089C187.706 7.76279 187.656 7.55828 187.564 7.37143C187.502 7.20381 187.39 7.05894 187.244 6.95585C187.098 6.85275 186.924 6.79626 186.745 6.79378H186.354C186.218 6.79309 186.082 6.80656 185.949 6.83397C185.819 6.85811 185.694 6.90216 185.578 6.96457C185.457 7.02749 185.342 7.10237 185.236 7.18809C185.125 7.2755 185.021 7.37121 184.925 7.4744C184.825 7.58462 184.735 7.70308 184.656 7.82853C184.573 7.96164 184.498 8.09726 184.427 8.23539L181.582 15.1069C181.217 16.0408 180.61 16.8608 179.824 17.4828C179.12 18.0453 178.248 18.3542 177.347 18.3593H174.876C174.694 18.3586 174.516 18.3015 174.368 18.1958C174.219 18.0901 174.107 17.9411 174.047 17.7691C173.956 17.5845 173.905 17.382 173.9 17.1759C173.895 16.9699 173.935 16.7651 174.017 16.5761L176.958 9.52128C177.399 8.40688 178.128 7.42936 179.07 6.6883C179.911 6.01363 180.956 5.6436 182.034 5.63849H194.159Z" fill="url(#paint9_linear_81_62)"/>
<path d="M209.612 12.4599C210.028 12.3008 210.369 12.4314 210.637 12.8517C210.769 13.0463 210.849 13.2715 210.87 13.5059C210.89 13.7403 210.85 13.976 210.753 14.1903L210.358 15.107C209.992 16.0399 209.385 16.8595 208.6 17.4829C207.895 18.049 207.018 18.3582 206.114 18.3595H193.436C193.255 18.3567 193.08 18.2987 192.934 18.1931C192.787 18.0876 192.677 17.9396 192.617 17.7692C192.525 17.5846 192.475 17.3822 192.47 17.1761C192.465 16.97 192.505 16.7653 192.587 16.5763L198.075 3.33057C198.177 3.10071 198.227 2.85064 198.22 2.5989C198.213 2.34717 198.15 2.10023 198.034 1.8764C197.798 1.39419 197.462 1.1556 197.03 1.1556C196.979 1.15368 196.93 1.13632 196.889 1.10581C196.848 1.07531 196.817 1.03311 196.801 0.984818C196.774 0.93427 196.76 0.877742 196.76 0.820314C196.76 0.762885 196.774 0.706357 196.801 0.65581C196.969 0.218807 197.253 0.000305176 197.64 0.000305176H203.213C203.943 0.000305176 204.495 0.389589 204.868 1.16816C205.052 1.53987 205.152 1.94783 205.159 2.36261C205.166 2.77738 205.082 3.18862 204.911 3.56665L204.062 5.63865H208.834C208.883 5.64056 208.931 5.65813 208.97 5.68883C209.008 5.71952 209.037 5.76175 209.05 5.80943C209.072 5.8614 209.084 5.91737 209.084 5.97393C209.084 6.0305 209.072 6.08647 209.05 6.13844C208.872 6.57544 208.588 6.79394 208.201 6.79394H204.165C203.778 6.79394 203.494 7.01244 203.316 7.44945L200.001 15.4486C199.919 15.6355 199.879 15.8383 199.884 16.0425C199.89 16.2466 199.941 16.447 200.033 16.629C200.095 16.7966 200.206 16.9416 200.352 17.0448C200.498 17.1479 200.671 17.2044 200.85 17.2067H201.307C201.698 17.2037 202.077 17.0702 202.384 16.8274C202.723 16.5547 202.983 16.1967 203.138 15.7902C203.244 15.4927 203.41 15.2204 203.626 14.99C203.842 14.7597 204.103 14.5764 204.393 14.4515L209.612 12.4599Z" fill="url(#paint10_linear_81_62)"/>
<path d="M233.268 5.63912C233.448 5.64235 233.623 5.70065 233.769 5.80616C233.915 5.91168 234.025 6.05936 234.085 6.22933C234.177 6.41405 234.228 6.61687 234.234 6.82344C234.239 7.03001 234.2 7.2353 234.117 7.42481C234.008 7.72485 233.837 7.99872 233.616 8.22882C233.394 8.45892 233.127 8.64017 232.831 8.76093L227.655 10.7551C227.241 10.9133 226.902 10.7802 226.628 10.3608C226.497 10.1662 226.417 9.94125 226.398 9.7074C226.378 9.47354 226.418 9.23851 226.515 9.02464L226.701 8.57759C226.783 8.38639 226.823 8.17963 226.818 7.97152C226.813 7.76342 226.762 7.55891 226.671 7.37206C226.609 7.20424 226.497 7.05918 226.351 6.95604C226.205 6.8529 226.031 6.79655 225.852 6.79442H223.554C223.285 6.79306 223.019 6.85139 222.775 6.9652C222.522 7.08585 222.297 7.25676 222.112 7.4675C221.909 7.70215 221.745 7.96855 221.627 8.25612L221.376 8.85888C221.098 9.51331 221.076 10.2482 221.314 10.9183C221.547 11.6266 221.949 12.0837 222.514 12.2946L229.682 15.0573C229.829 15.1139 229.961 15.2054 230.066 15.3239C230.17 15.4424 230.244 15.5845 230.282 15.7379C230.392 16.0818 230.378 16.4533 230.242 16.7877L230.219 16.8128C230.048 17.2556 229.762 17.6448 229.391 17.9405C229.057 18.2122 228.64 18.3603 228.21 18.3599H212.076C211.898 18.3578 211.725 18.3017 211.579 18.1991C211.433 18.0964 211.322 17.9519 211.26 17.7848C211.167 17.6027 211.117 17.4024 211.111 17.1983C211.105 16.9941 211.145 16.7913 211.227 16.6044L211.468 16.0745C211.569 15.7666 211.736 15.4848 211.958 15.249C212.179 15.0133 212.451 14.8295 212.752 14.7107L217.953 12.7166C218.352 12.5592 218.686 12.6864 218.958 13.0983C219.09 13.295 219.169 13.522 219.189 13.758C219.209 13.994 219.168 14.2311 219.071 14.447L218.656 15.4516C218.574 15.6412 218.538 15.8481 218.553 16.0544C218.563 16.2532 218.608 16.4488 218.686 16.632C218.758 16.8015 218.877 16.947 219.028 17.0514C219.167 17.1523 219.334 17.2076 219.505 17.2097H220.954C221.636 17.2095 222.297 16.9785 222.83 16.5542C223.422 16.0898 223.877 15.4735 224.147 14.771C224.283 14.4454 224.297 14.0816 224.187 13.7463C224.146 13.5907 224.071 13.4463 223.967 13.3237C223.863 13.201 223.733 13.1034 223.586 13.038L215.309 9.8886C215.16 9.82366 215.029 9.72633 214.923 9.60376C214.817 9.48119 214.741 9.33651 214.698 9.18035C214.58 8.84791 214.59 8.48304 214.728 8.15817L215.163 7.10836C215.33 6.68496 215.606 6.31269 215.962 6.02841C216.281 5.77231 216.679 5.63319 217.089 5.6341L233.268 5.63912Z" fill="url(#paint11_linear_81_62)"/>
<defs>
<linearGradient id="paint0_linear_81_62" x1="11.2467" y1="0.000305176" x2="11.2467" y2="18.3595" gradientUnits="userSpaceOnUse">
<stop stop-color="#F94139"/>
<stop offset="1" stop-color="#F944A8"/>
</linearGradient>
<linearGradient id="paint1_linear_81_62" x1="32.2951" y1="5.63556" x2="32.2951" y2="18.3589" gradientUnits="userSpaceOnUse">
<stop stop-color="#F94139"/>
<stop offset="1" stop-color="#F944A8"/>
</linearGradient>
<linearGradient id="paint2_linear_81_62" x1="54.0477" y1="0.000305176" x2="54.0477" y2="18.3595" gradientUnits="userSpaceOnUse">
<stop stop-color="#F94139"/>
<stop offset="1" stop-color="#F944A8"/>
</linearGradient>
<linearGradient id="paint3_linear_81_62" x1="69.3756" y1="0.000305176" x2="69.3756" y2="18.372" gradientUnits="userSpaceOnUse">
<stop stop-color="#F94139"/>
<stop offset="1" stop-color="#F944A8"/>
</linearGradient>
<linearGradient id="paint4_linear_81_62" x1="83.8481" y1="5.63556" x2="83.8481" y2="18.3589" gradientUnits="userSpaceOnUse">
<stop stop-color="#F94139"/>
<stop offset="1" stop-color="#F944A8"/>
</linearGradient>
<linearGradient id="paint5_linear_81_62" x1="103.813" y1="5.63849" x2="103.813" y2="18.3593" gradientUnits="userSpaceOnUse">
<stop stop-color="#F94139"/>
<stop offset="1" stop-color="#F944A8"/>
</linearGradient>
<linearGradient id="paint6_linear_81_62" x1="123.331" y1="5.63409" x2="123.331" y2="18.3725" gradientUnits="userSpaceOnUse">
<stop stop-color="#F94139"/>
<stop offset="1" stop-color="#F944A8"/>
</linearGradient>
<linearGradient id="paint7_linear_81_62" x1="142.348" y1="5.63556" x2="142.348" y2="23.9997" gradientUnits="userSpaceOnUse">
<stop stop-color="#F94139"/>
<stop offset="1" stop-color="#F944A8"/>
</linearGradient>
<linearGradient id="paint8_linear_81_62" x1="164.571" y1="5.63556" x2="164.571" y2="18.3589" gradientUnits="userSpaceOnUse">
<stop stop-color="#F94139"/>
<stop offset="1" stop-color="#F944A8"/>
</linearGradient>
<linearGradient id="paint9_linear_81_62" x1="184.506" y1="5.63849" x2="184.506" y2="18.3593" gradientUnits="userSpaceOnUse">
<stop stop-color="#F94139"/>
<stop offset="1" stop-color="#F944A8"/>
</linearGradient>
<linearGradient id="paint10_linear_81_62" x1="201.672" y1="0.000305176" x2="201.672" y2="18.3595" gradientUnits="userSpaceOnUse">
<stop stop-color="#F94139"/>
<stop offset="1" stop-color="#F944A8"/>
</linearGradient>
<linearGradient id="paint11_linear_81_62" x1="222.672" y1="5.63409" x2="222.672" y2="18.3599" gradientUnits="userSpaceOnUse">
<stop stop-color="#F94139"/>
<stop offset="1" stop-color="#F944A8"/>
</linearGradient>
</defs>
</svg>
