<svg width="29" height="22" viewBox="0 0 29 22" fill="none" xmlns="http://www.w3.org/2000/svg">
<path fill-rule="evenodd" clip-rule="evenodd" d="M19.0732 0.0405603C17.7619 0.222333 16.6958 0.74408 15.7944 1.64522C14.5709 2.86851 13.947 4.72169 14.2129 6.34253C14.2483 6.55824 14.262 6.74978 14.2434 6.76834C14.2249 6.78689 13.8549 6.76662 13.4213 6.72331C9.51674 6.33361 5.74469 4.33801 3.112 1.26926C2.85763 0.972799 2.87198 0.962036 2.57383 1.67176C2.22462 2.50324 2.14625 2.89987 2.14599 3.83759C2.14579 4.53563 2.17403 4.79459 2.29744 5.22416C2.58818 6.23642 3.23713 7.26024 4.07609 8.03018L4.52471 8.44193L4.16095 8.39657C3.65737 8.33384 2.92311 8.1322 2.47046 7.93233C2.2614 7.84003 2.07872 7.77604 2.06457 7.79024C2.05035 7.80437 2.07092 8.07403 2.11014 8.38937C2.38369 10.5871 3.77986 12.3411 5.84747 13.0846L6.44271 13.2987L6.04588 13.3551C5.82763 13.3861 5.28424 13.4098 4.8384 13.4076C4.04997 13.4037 4.02887 13.4073 4.06835 13.5396C4.16128 13.8508 4.36803 14.2601 4.65956 14.7101C5.5515 16.0865 7.10515 17.0387 8.71905 17.1981L9.15437 17.2411L8.72447 17.5464C7.37618 18.5037 5.90064 19.1044 4.09481 19.431C3.654 19.5107 3.09771 19.5457 2.23084 19.5482L0.995117 19.5519L1.33798 19.7673C1.87581 20.1052 3.33568 20.8055 4.05228 21.0692C4.88926 21.3773 6.24066 21.7226 7.20568 21.875C8.26157 22.0416 10.8158 22.0417 11.8991 21.8751C14.6168 21.4571 16.9558 20.499 18.9994 18.9664C19.7121 18.4319 21.0554 17.1238 21.6524 16.3828C22.7006 15.0818 23.7235 13.273 24.3035 11.6948C24.8988 10.0749 25.2558 8.1666 25.2697 6.53005L25.278 5.5543L25.7351 5.19115C26.3376 4.71251 27.1997 3.81917 27.6637 3.19277C27.8689 2.91578 28.0368 2.67584 28.0368 2.65966C28.0368 2.64342 27.702 2.749 27.2927 2.89432C26.6483 3.12317 25.0719 3.50785 25.0143 3.45034C25.0034 3.43938 25.1555 3.3196 25.3525 3.18418C25.824 2.85999 26.3038 2.34676 26.6841 1.75984C26.9716 1.31614 27.3464 0.518333 27.2927 0.464587C27.2796 0.45158 27.0473 0.555573 26.7765 0.695749C26.0887 1.0517 25.2013 1.39333 24.437 1.59643L23.787 1.76915L23.4813 1.4756C22.3928 0.430253 20.562 -0.165709 19.0732 0.0405603Z" fill="white"/>
</svg>
