<svg width="25" height="24" viewBox="0 0 25 24" fill="none" xmlns="http://www.w3.org/2000/svg">
<g clip-path="url(#clip0_136_273)">
<path d="M12.6416 0H12.3584C9.18829 0.0374081 6.1618 1.32779 3.93996 3.58931C1.71812 5.85082 0.481505 8.89968 0.500209 12.07C0.518913 15.2402 1.79142 18.2743 4.03979 20.5094C6.28815 22.7446 9.32967 23.9992 12.5 23.9992C15.6703 23.9992 18.7118 22.7446 20.9602 20.5094C23.2086 18.2743 24.4811 15.2402 24.4998 12.07C24.5185 8.89968 23.2819 5.85082 21.06 3.58931C18.8382 1.32779 15.8117 0.0374081 12.6416 0ZM1.43215 12.4602H5.14897C5.17505 13.9839 5.39309 15.4983 5.79794 16.9676H2.6003C1.89772 15.5642 1.49964 14.0282 1.43215 12.4602ZM12.9484 6.12389V0.955752C15.0605 1.17994 16.9012 3.20944 17.9631 6.12389H12.9484ZM18.2581 7.04425C18.6836 8.51005 18.9137 10.0256 18.9425 11.5516H12.9484V7.07965L18.2581 7.04425ZM12.0398 0.955752V6.12389H7.03687C8.09882 3.20944 9.93953 1.17994 12.0398 0.955752ZM12.0398 7.07965V11.5516H6.05752C6.08573 10.038 6.31184 8.53459 6.73009 7.07965H12.0398ZM5.14897 11.5516H1.43215C1.50317 9.99547 1.9012 8.47173 2.6003 7.07965H5.79794C5.39602 8.53742 5.17801 10.0397 5.14897 11.5516ZM6.05752 12.4602H12.0398V16.9676H6.73009C6.30971 15.501 6.08359 13.9856 6.05752 12.4602ZM12.0398 17.8761V23.0442C9.93953 22.7847 8.09882 20.7906 7.03687 17.8761H12.0398ZM12.9484 23.0442V17.8761H17.9631C16.8894 20.7906 15.0605 22.7847 12.9484 23.0442ZM12.9484 16.9676V12.4602H18.9425C18.9069 13.9856 18.6769 15.5003 18.2581 16.9676H12.9484ZM19.851 12.4602H23.556C23.491 14.0299 23.0886 15.5673 22.3761 16.9676H19.1903C19.5991 15.4988 19.8211 13.9844 19.851 12.4602ZM19.851 11.5516C19.8163 10.0402 19.5983 8.5386 19.2021 7.07965H22.3997C23.1136 8.47939 23.5161 10.017 23.5796 11.587L19.851 11.5516ZM21.8805 6.12389H18.9189C18.3649 4.37899 17.388 2.79815 16.0752 1.52212C18.481 2.34454 20.5307 3.96933 21.8805 6.12389ZM8.90118 1.52212C7.58841 2.79815 6.61154 4.37899 6.05752 6.12389H3.10767C4.46189 3.96851 6.51557 2.34389 8.92478 1.52212H8.90118ZM3.10767 17.8761H6.08112C6.63632 19.6266 7.61749 21.2119 8.93658 22.4897C6.52309 21.6638 4.46572 20.0354 3.10767 17.8761ZM16.087 22.4897C17.4061 21.2141 18.3839 19.6277 18.9307 17.8761H21.9041C20.5446 20.0388 18.4822 21.6679 16.0634 22.4897H16.087Z" fill="#0D0D0D"/>
</g>
<defs>
<clipPath id="clip0_136_273">
<rect width="24" height="24" fill="white" transform="translate(0.5)"/>
</clipPath>
</defs>
</svg>
